<svg xmlns="http://www.w3.org/2000/svg" width="900" height="280" viewBox="0 0 900 280">
  <rect width="900" height="280" fill="#f5f5f5"/>
  <g stroke="#e2e8f0" stroke-width="1">
    <line x1="110" y1="20" x2="110" y2="260"/>
    <line x1="210" y1="20" x2="210" y2="260"/>
    <line x1="310" y1="20" x2="310" y2="260"/>
    <line x1="410" y1="20" x2="410" y2="260"/>
    <line x1="510" y1="20" x2="510" y2="260"/>
    <line x1="610" y1="20" x2="610" y2="260"/>
    <line x1="710" y1="20" x2="710" y2="260"/>
    <line x1="810" y1="20" x2="810" y2="260"/>
  </g>
  <rect x="70" y="75" width="70" height="16" rx="6" fill="#111827"/>
  <rect x="170" y="75" width="70" height="20" rx="6" fill="#111827"/>
  <rect x="270" y="75" width="70" height="12" rx="6" fill="#111827"/>
  <rect x="370" y="75" width="70" height="26" rx="6" fill="#111827"/>
  <rect x="470" y="75" width="70" height="18" rx="6" fill="#111827"/>
  <rect x="570" y="75" width="70" height="30" rx="6" fill="#111827"/>
  <rect x="670" y="75" width="70" height="14" rx="6" fill="#111827"/>
  <rect x="770" y="75" width="70" height="24" rx="6" fill="#111827"/>
  <rect x="70" y="165" width="70" height="10" rx="5" fill="#1f2937"/>
  <rect x="170" y="165" width="70" height="9" rx="5" fill="#1f2937"/>
  <rect x="270" y="165" width="70" height="11" rx="5" fill="#1f2937"/>
  <rect x="370" y="165" width="70" height="10" rx="5" fill="#1f2937"/>
  <rect x="470" y="165" width="70" height="10" rx="5" fill="#1f2937"/>
  <rect x="570" y="165" width="70" height="12" rx="5" fill="#1f2937"/>
  <rect x="670" y="165" width="70" height="9" rx="5" fill="#1f2937"/>
  <rect x="770" y="165" width="70" height="10" rx="5" fill="#1f2937"/>
</svg>
